<svg width="96" height="25" viewBox="0 0 96 25" fill="none" xmlns="http://www.w3.org/2000/svg">
<path d="M16.7316 14.1925H2.38965V15.0889H16.7316V14.1925Z" fill="black"/>
<path d="M5.54794 11.0553H5.5459C5.5465 11.0526 5.54707 11.0499 5.54767 11.0471C5.54767 11.0499 5.54794 11.0526 5.54794 11.0553Z" fill="#FC8D2F"/>
<path d="M18.2264 17.4792H16.7324V18.3755H19.1227V15.9852H18.2264V17.4792Z" fill="black"/>
<path d="M0.89637 17.4792H2.39032V18.3755H0V15.9852H0.89637V17.4792Z" fill="black"/>
<path d="M0.89637 11.8023H2.39032V10.9059H0V13.2962H0.89637V11.8023Z" fill="black"/>
<path d="M19.1225 13.2962H18.2261V11.8023H17.3C17.2965 11.4964 17.2775 11.1977 17.2422 10.9059H19.1225V13.2962Z" fill="black"/>
<path d="M4.25785 0C4.62288 2.54131e-05 4.92162 0.116113 5.15393 0.348394C5.40284 0.580723 5.52741 0.887901 5.52741 1.26957V7.57158C6.10826 6.85801 6.81369 6.30201 7.64345 5.90373C8.47322 5.50547 9.36946 5.30644 10.332 5.30644C11.5269 5.30644 12.6056 5.60506 13.5682 6.20252C14.5473 6.79998 15.3108 7.62991 15.8584 8.69204C16.4227 9.73757 16.7049 10.9075 16.7049 12.202C16.7049 13.4964 16.406 14.6748 15.8085 15.737C15.2111 16.7825 14.3814 17.6124 13.3193 18.2265C12.2737 18.8239 11.1118 19.1226 9.8339 19.1226C8.55607 19.1225 7.39429 18.8239 6.34879 18.2265C5.40296 17.662 4.6336 16.9144 4.03842 15.9853H7.15092C7.2834 16.0922 7.42196 16.1929 7.56876 16.2846C8.24913 16.6829 9.00419 16.8822 9.8339 16.8822C10.6637 16.8822 11.4107 16.6829 12.0745 16.2846C12.7549 15.8697 13.286 15.3053 13.6677 14.5917C14.066 13.8781 14.2653 13.0815 14.2653 12.202C14.2653 11.3224 14.066 10.534 13.6677 9.83702C13.286 9.12342 12.7549 8.56748 12.0745 8.16916C11.4107 7.75427 10.6637 7.54678 9.8339 7.54678C9.00419 7.54681 8.24913 7.75432 7.56876 8.16916C6.90494 8.56745 6.3821 9.12342 6.0004 9.83702C5.6187 10.534 5.42762 11.3224 5.42762 12.202C5.42762 12.5822 5.46409 12.9469 5.53558 13.2962H3.06385C3.01372 12.9411 2.98828 12.5764 2.98828 12.202V1.26957C2.98828 0.8879 3.10437 0.580724 3.33668 0.348394C3.56901 0.116098 3.87617 0 4.25785 0Z" fill="#FC8D2F"/>
<path fill-rule="evenodd" clip-rule="evenodd" d="M24.7527 5.32495C26.0257 5.32495 27.1747 5.63328 28.1997 6.24995C29.2413 6.84995 30.0596 7.68328 30.6548 8.74995C31.2665 9.79995 31.5723 10.975 31.5723 12.275V17.85C31.5723 18.2166 31.4483 18.525 31.2004 18.775C30.9689 19.0083 30.6713 19.125 30.3076 19.125C29.9439 19.125 29.638 19.0083 29.39 18.775C29.1586 18.525 29.0429 18.2166 29.0429 17.85V16.925C28.4642 17.6416 27.7616 18.2 26.935 18.6C26.1083 19 25.2156 19.2 24.2567 19.2C23.0664 19.2 21.9835 18.9 21.0081 18.3C20.0492 17.7 19.2887 16.875 18.7266 15.825C18.181 14.7583 17.9082 13.575 17.9082 12.275C17.9082 10.975 18.2058 9.79995 18.801 8.74995C19.3961 7.68328 20.2145 6.84995 21.256 6.24995C22.3141 5.63328 23.4797 5.32495 24.7527 5.32495ZM24.7527 7.57495C23.926 7.57495 23.1738 7.78328 22.496 8.19995C21.8347 8.59995 21.3056 9.15828 20.9089 9.87495C20.5286 10.5916 20.3385 11.3916 20.3385 12.275C20.3385 13.1583 20.5286 13.9583 20.9089 14.675C21.3056 15.375 21.8347 15.9333 22.496 16.35C23.1738 16.75 23.926 16.95 24.7527 16.95C25.5793 16.95 26.3233 16.75 26.9846 16.35C27.6624 15.9333 28.1914 15.375 28.5717 14.675C28.9519 13.9583 29.1421 13.1583 29.1421 12.275C29.1421 11.3916 28.9519 10.5916 28.5717 9.87495C28.1914 9.15828 27.6624 8.59995 26.9846 8.19995C26.3233 7.78328 25.5793 7.57495 24.7527 7.57495Z" fill="black"/>
<path d="M40.1226 5.27502C40.9989 5.27502 41.685 5.40836 42.1809 5.67503C42.6769 5.94169 42.9249 6.27502 42.9249 6.67502C42.9249 6.79169 42.9166 6.87502 42.9001 6.92502C42.7513 7.45836 42.4207 7.72502 41.9082 7.72502C41.8255 7.72502 41.7015 7.70836 41.5362 7.67502C40.8749 7.55836 40.3376 7.50002 39.9242 7.50002C38.7339 7.50002 37.775 7.77502 37.0476 8.32502C36.3202 8.87502 35.9564 9.61669 35.9564 10.55V17.85C35.9564 18.25 35.849 18.5584 35.6341 18.775C35.4357 18.9917 35.1298 19.1 34.7165 19.1C34.3197 19.1 34.0139 19 33.7989 18.8C33.584 18.5834 33.4766 18.2667 33.4766 17.85V6.67502C33.4766 6.27502 33.584 5.96669 33.7989 5.75002C34.0139 5.53336 34.3197 5.42502 34.7165 5.42502C35.5431 5.42502 35.9564 5.84169 35.9564 6.67502V7.15002C36.4524 6.56669 37.0641 6.10836 37.7916 5.77502C38.519 5.44169 39.296 5.27502 40.1226 5.27502Z" fill="black"/>
<path fill-rule="evenodd" clip-rule="evenodd" d="M50.4964 5.32495C51.7694 5.32495 52.9267 5.63328 53.9683 6.24995C55.0263 6.84995 55.853 7.68328 56.4481 8.74995C57.0433 9.79995 57.3409 10.975 57.3409 12.275C57.3409 13.575 57.0598 14.7583 56.4977 15.825C55.9522 16.875 55.1917 17.7 54.2162 18.3C53.2574 18.9 52.1827 19.2 50.9924 19.2C50.0335 19.2 49.1408 19 48.3141 18.6C47.4875 18.2 46.7849 17.6416 46.2062 16.925V23.675C46.2062 24.0583 46.0905 24.3666 45.8591 24.6C45.6276 24.8333 45.3217 24.95 44.9415 24.95C44.5778 24.95 44.2719 24.8333 44.0239 24.6C43.7925 24.3666 43.6768 24.0583 43.6768 23.675V12.275C43.6768 10.975 43.9743 9.79995 44.5695 8.74995C45.1812 7.68328 45.9996 6.84995 47.0246 6.24995C48.0661 5.63328 49.2234 5.32495 50.4964 5.32495ZM50.4964 7.57495C49.6698 7.57495 48.9176 7.78328 48.2397 8.19995C47.5784 8.59995 47.0577 9.15828 46.6774 9.87495C46.2972 10.5916 46.107 11.3916 46.107 12.275C46.107 13.1583 46.2972 13.9583 46.6774 14.675C47.0577 15.375 47.5784 15.9333 48.2397 16.35C48.9176 16.75 49.6698 16.95 50.4964 16.95C51.3231 16.95 52.067 16.75 52.7283 16.35C53.4061 15.9333 53.9352 15.375 54.3154 14.675C54.7122 13.9583 54.9106 13.1583 54.9106 12.275C54.9106 11.3916 54.7122 10.5916 54.3154 9.87495C53.9352 9.15828 53.4061 8.59995 52.7283 8.19995C52.067 7.78328 51.3231 7.57495 50.4964 7.57495Z" fill="black"/>
<path fill-rule="evenodd" clip-rule="evenodd" d="M65.404 5.32495C66.677 5.32495 67.8261 5.63328 68.8511 6.24995C69.8926 6.84995 70.711 7.68328 71.3061 8.74995C71.9179 9.79995 72.2237 10.975 72.2237 12.275V17.85C72.2237 18.2166 72.0997 18.525 71.8517 18.775C71.6203 19.0083 71.3227 19.125 70.959 19.125C70.5952 19.125 70.2894 19.0083 70.0414 18.775C69.81 18.525 69.6942 18.2166 69.6942 17.85V16.925C69.1156 17.6416 68.413 18.2 67.5863 18.6C66.7597 19 65.8669 19.2 64.9081 19.2C63.7177 19.2 62.6348 18.9 61.6594 18.3C60.7005 17.7 59.94 16.875 59.3779 15.825C58.8324 14.7583 58.5596 13.575 58.5596 12.275C58.5596 10.975 58.8572 9.79995 59.4523 8.74995C60.0475 7.68328 60.8659 6.84995 61.9074 6.24995C62.9655 5.63328 64.131 5.32495 65.404 5.32495ZM65.404 7.57495C64.5774 7.57495 63.8252 7.78328 63.1473 8.19995C62.486 8.59995 61.957 9.15828 61.5602 9.87495C61.18 10.5916 60.9899 11.3916 60.9899 12.275C60.9899 13.1583 61.18 13.9583 61.5602 14.675C61.957 15.375 62.486 15.9333 63.1473 16.35C63.8252 16.75 64.5774 16.95 65.404 16.95C66.2307 16.95 66.9746 16.75 67.6359 16.35C68.3138 15.9333 68.8428 15.375 69.2231 14.675C69.6033 13.9583 69.7934 13.1583 69.7934 12.275C69.7934 11.3916 69.6033 10.5916 69.2231 9.87495C68.8428 9.15828 68.3138 8.59995 67.6359 8.19995C66.9746 7.78328 66.2307 7.57495 65.404 7.57495Z" fill="black"/>
<path d="M78.8895 5.32495C79.9641 5.32495 80.923 5.49995 81.7661 5.84995C82.6258 6.19995 83.3037 6.68328 83.7996 7.29995C84.0146 7.56662 84.122 7.83328 84.122 8.09995C84.122 8.38328 83.9815 8.64162 83.7004 8.87495C83.5186 9.00828 83.2871 9.07495 83.0061 9.07495C82.5762 9.07495 82.1877 8.91662 81.8405 8.59995C81.4272 8.21662 80.9891 7.94995 80.5262 7.79995C80.0633 7.63328 79.5012 7.54995 78.8399 7.54995C78.0794 7.54995 77.4511 7.68328 76.9552 7.94995C76.4757 8.19995 76.236 8.55828 76.236 9.02495C76.236 9.35828 76.3187 9.64162 76.484 9.87495C76.6493 10.0916 76.9634 10.3 77.4263 10.5C77.8893 10.6833 78.5588 10.8666 79.435 11.05C81.2371 11.4166 82.5101 11.925 83.2541 12.575C84.0146 13.225 84.3948 14.0666 84.3948 15.1C84.3948 15.8666 84.1882 16.5666 83.7748 17.2C83.3615 17.8166 82.7498 18.3083 81.9397 18.675C81.1462 19.025 80.1873 19.2 79.0631 19.2C77.9389 19.2 76.8808 19.025 75.8888 18.675C74.8969 18.325 74.1198 17.8666 73.5577 17.3C73.3428 17.0833 73.2354 16.825 73.2354 16.525C73.2354 16.125 73.4007 15.8 73.7313 15.55C74.0454 15.3166 74.3348 15.2 74.5993 15.2C74.9299 15.2 75.2441 15.35 75.5416 15.65C75.8558 16 76.3269 16.3083 76.9552 16.575C77.5834 16.825 78.253 16.95 78.9639 16.95C79.9062 16.95 80.6337 16.7916 81.1462 16.475C81.6752 16.1583 81.9397 15.7333 81.9397 15.2C81.9397 14.6833 81.6835 14.2583 81.171 13.925C80.6585 13.575 79.7905 13.2833 78.5671 13.05C75.3928 12.4333 73.8057 11.1166 73.8057 9.09995C73.8057 8.28328 74.0454 7.59162 74.5249 7.02495C75.0043 6.45828 75.6326 6.03328 76.4096 5.74995C77.1866 5.46662 78.0133 5.32495 78.8895 5.32495Z" fill="black"/>
<path d="M90.4949 5.32495C91.5696 5.32495 92.5284 5.49995 93.3716 5.84995C94.2313 6.19995 94.9091 6.68328 95.4051 7.29995C95.62 7.56662 95.7275 7.83328 95.7275 8.09995C95.7275 8.38328 95.587 8.64162 95.3059 8.87495C95.1241 9.00828 94.8926 9.07495 94.6115 9.07495C94.1817 9.07495 93.7932 8.91662 93.446 8.59995C93.0327 8.21662 92.5946 7.94995 92.1317 7.79995C91.6688 7.63328 91.1066 7.54995 90.4453 7.54995C89.6849 7.54995 89.0566 7.68328 88.5606 7.94995C88.0812 8.19995 87.8415 8.55828 87.8415 9.02495C87.8415 9.35828 87.9241 9.64162 88.0895 9.87495C88.2548 10.0916 88.5689 10.3 89.0318 10.5C89.4947 10.6833 90.1643 10.8666 91.0405 11.05C92.8426 11.4166 94.1156 11.925 94.8595 12.575C95.62 13.225 96.0003 14.0666 96.0003 15.1C96.0003 15.8666 95.7936 16.5666 95.3803 17.2C94.967 17.8166 94.3553 18.3083 93.5452 18.675C92.7516 19.025 91.7927 19.2 90.6685 19.2C89.5443 19.2 88.4862 19.025 87.4943 18.675C86.5023 18.325 85.7253 17.8666 85.1632 17.3C84.9483 17.0833 84.8408 16.825 84.8408 16.525C84.8408 16.125 85.0061 15.8 85.3368 15.55C85.6509 15.3166 85.9402 15.2 86.2048 15.2C86.5354 15.2 86.8495 15.35 87.1471 15.65C87.4612 16 87.9324 16.3083 88.5606 16.575C89.1889 16.825 89.8584 16.95 90.5693 16.95C91.5117 16.95 92.2391 16.7916 92.7516 16.475C93.2807 16.1583 93.5452 15.7333 93.5452 15.2C93.5452 14.6833 93.2889 14.2583 92.7764 13.925C92.2639 13.575 91.396 13.2833 90.1726 13.05C86.9983 12.4333 85.4112 11.1166 85.4112 9.09995C85.4112 8.28328 85.6509 7.59162 86.1304 7.02495C86.6098 6.45828 87.238 6.03328 88.0151 5.74995C88.7921 5.46662 89.6187 5.32495 90.4949 5.32495Z" fill="black"/>
</svg>
