<svg width="235" height="61" viewBox="0 0 235 61" fill="none" xmlns="http://www.w3.org/2000/svg">
<path d="M70.0001 14.4C72.5001 15.9 74.6001 18 76.1001 20.5C77.6001 23.1 78.4001 26.1 78.3001 29.2V42.9C78.3001 44.6 76.9001 46 75.2001 46C73.5001 46 72.1001 44.6 72.1001 42.9V40.6C67.2001 46.5 58.8001 47.9 52.3001 44C49.9001 42.5 48.0001 40.4 46.7001 37.9C45.3001 35.2 44.6001 32.2 44.6001 29.2C44.6001 26.2 45.3001 23.2 46.8001 20.5C48.2001 17.9 50.3001 15.8 52.9001 14.4C55.5001 12.9 58.5001 12.1 61.5001 12.2C64.4001 12.2 67.4001 12.9 70.0001 14.4ZM67.0001 39.2C68.6001 38.2 70.0001 36.8 70.9001 35.1C71.9001 33.3 72.3001 31.3 72.3001 29.3C72.3001 27.3 71.8001 25.2 70.9001 23.4C68.0001 18.2 61.5001 16.2 56.3001 19.1C56.2001 19.2 56.1001 19.2 56.0001 19.3C54.3001 20.3 53.0001 21.7 52.1001 23.4C51.1001 25.2 50.6001 27.2 50.7001 29.3C50.7001 31.3 51.2001 33.4 52.1001 35.1C53.0001 36.8 54.4001 38.2 56.0001 39.2C59.3001 41.2 63.5001 41.2 67.0001 39.2Z" fill="black"/>
<path d="M102.9 13.1C103.9 13.5 104.7 14.4 104.7 15.5C104.7 15.7 104.7 15.9 104.6 16.1C104.4 17.3 103.3 18.1 102.2 18.1C101.9 18.1 101.6 18 101.3 18C99.9998 17.7 98.6998 17.6 97.2998 17.6C94.7998 17.5 92.2998 18.2 90.1998 19.6C88.4998 20.9 87.3998 22.9 87.4998 25V42.9C87.5998 43.7 87.2998 44.5 86.6998 45.2C86.0998 45.8 85.1998 46.1 84.3998 46C83.5998 46.1 82.7998 45.8 82.0998 45.2C81.4998 44.6 81.1998 43.7 81.2998 42.9V15.5C81.0998 14 82.1998 12.6 83.7998 12.4C83.9998 12.4 84.1998 12.4 84.3998 12.4C86.3998 12.4 87.4998 13.4 87.4998 15.5V16.7C88.6998 15.3 90.2998 14.1 91.9998 13.3C93.7998 12.5 95.7998 12.1 97.7998 12.1C99.5998 12 101.3 12.3 102.9 13.1Z" fill="black"/>
<path d="M165.7 14.4C168.2 15.9 170.3 18 171.8 20.5C173.3 23.1 174.1 26.1 174 29.2V42.9C174 44.6 172.6 46 170.9 46C169.2 46 167.8 44.6 167.8 42.9V40.6C162.9 46.5 154.5 47.9 148 44C145.6 42.5 143.7 40.4 142.4 37.9C141 35.2 140.3 32.2 140.3 29.2C140.3 26.2 141 23.2 142.5 20.5C143.9 17.9 146 15.8 148.6 14.4C151.2 12.9 154.2 12.1 157.2 12.2C160.2 12.2 163.1 12.9 165.7 14.4ZM162.7 39.2C164.3 38.2 165.7 36.8 166.6 35.1C167.6 33.3 168 31.3 168 29.3C168 27.3 167.5 25.2 166.6 23.4C163.7 18.2 157.2 16.2 152 19.1C151.9 19.2 151.8 19.2 151.7 19.3C150 20.3 148.7 21.7 147.8 23.4C146.8 25.2 146.3 27.2 146.4 29.3C146.4 31.3 146.9 33.4 147.8 35.1C148.7 36.8 150.1 38.2 151.7 39.2C155 41.2 159.3 41.2 162.7 39.2Z" fill="black"/>
<path d="M183.7 44.9C181.6 44.2 179.6 43.1 177.9 41.5C177.4 41 177.1 40.3 177.1 39.6C177.1 38.6 177.5 37.8 178.3 37.2C178.9 36.7 179.7 36.4 180.4 36.3C181.3 36.3 182.1 36.7 182.7 37.4C183.7 38.4 184.9 39.2 186.2 39.6C187.8 40.2 189.5 40.6 191.2 40.5C193.1 40.6 194.9 40.2 196.6 39.3C197.8 38.7 198.5 37.5 198.5 36.2C198.5 34.9 197.7 33.7 196.6 33C194.6 31.9 192.4 31.2 190.2 30.9C182.4 29.4 178.4 26.2 178.4 21.2C178.3 19.3 179 17.5 180.2 16.1C181.4 14.7 183.1 13.6 184.9 13C186.9 12.3 188.9 11.9 191 12C193.4 12 195.9 12.4 198.1 13.3C200 14 201.8 15.3 203.1 16.9C203.6 17.4 203.9 18.1 203.9 18.9C203.9 19.7 203.5 20.4 202.9 20.8C202.4 21.1 201.8 21.3 201.2 21.3C200.1 21.3 199.1 20.9 198.3 20.1C197.4 19.2 196.3 18.5 195.1 18.1C193.8 17.7 192.3 17.5 190.9 17.5C189.3 17.4 187.7 17.8 186.3 18.4C185.2 18.8 184.5 19.9 184.5 21.1C184.5 21.8 184.7 22.6 185.1 23.2C185.7 23.9 186.5 24.4 187.4 24.7C189 25.3 190.7 25.8 192.4 26.1C196.8 27 200 28.2 201.9 29.8C203.7 31.3 204.8 33.6 204.7 36C204.7 37.8 204.2 39.6 203.2 41.1C202.1 42.7 200.5 44 198.7 44.7C196.4 45.6 194 46.1 191.6 46C188.9 46.2 186.2 45.8 183.7 44.9Z" fill="black"/>
<path d="M214 44.9C211.9 44.2 209.9 43.1 208.2 41.5C207.7 41 207.4 40.3 207.4 39.6C207.4 38.6 207.8 37.8 208.6 37.2C209.2 36.7 210 36.4 210.7 36.3C211.6 36.3 212.4 36.7 213 37.4C214 38.4 215.2 39.2 216.5 39.6C218.1 40.2 219.8 40.6 221.5 40.5C223.4 40.6 225.2 40.2 226.9 39.3C228.1 38.7 228.8 37.5 228.8 36.2C228.8 34.9 228 33.7 226.9 33C224.9 31.9 222.7 31.2 220.5 30.9C212.7 29.4 208.7 26.2 208.7 21.2C208.6 19.3 209.3 17.5 210.5 16.1C211.7 14.7 213.4 13.6 215.2 13C217.2 12.3 219.2 11.9 221.3 12C223.7 12 226.2 12.4 228.4 13.3C230.3 14 232.1 15.3 233.4 16.9C233.9 17.4 234.2 18.1 234.2 18.9C234.2 19.7 233.8 20.4 233.2 20.8C232.7 21.1 232.1 21.3 231.5 21.3C230.4 21.3 229.4 20.9 228.6 20.1C227.7 19.2 226.6 18.5 225.4 18.1C224.1 17.7 222.6 17.5 221.2 17.5C219.6 17.4 218 17.8 216.6 18.4C215.5 18.8 214.8 19.9 214.8 21.1C214.8 21.8 215 22.6 215.4 23.2C216 23.9 216.8 24.4 217.7 24.7C219.3 25.3 221 25.8 222.7 26.1C227.1 27 230.3 28.2 232.2 29.8C234 31.3 235.1 33.6 235 36C235 37.8 234.5 39.6 233.5 41.1C232.4 42.7 230.8 44 229 44.7C226.7 45.6 224.3 46.1 221.9 46C219.2 46.2 216.5 45.8 214 44.9Z" fill="black"/>
<path d="M137.2 29.1C137.2 26.7 136.8 24.4 135.9 22.2C135.9 22.1 135.9 22.1 135.8 22C135.7 21.8 135.6 21.5 135.5 21.3C135.4 21 135.2 20.7 135 20.4C133.6 17.8 131.5 15.7 128.9 14.3C128.6 14.1 128.3 14 128 13.8C127.8 13.7 127.7 13.7 127.5 13.6C127.4 13.5 127.2 13.5 127.1 13.4C126.9 13.3 126.7 13.2 126.5 13.1L126.3 13C126.1 12.9 125.8 12.8 125.5 12.7C124.7 12.4 123.8 12.3 123 12.1C122.7 12.1 122.4 12 122.1 12H122C121.4 11.9 120.9 11.9 120.3 11.9C117.3 11.9 114.4 12.6 111.8 14.1C109.3 15.6 107.2 17.7 105.7 20.2C104.2 22.8 103.4 25.8 103.5 28.9V57C103.5 57.1 103.5 57.3 103.5 57.4C103.5 58.1 103.9 58.8 104.4 59.3C104.8 59.7 105.3 60 105.8 60.1C106.1 60.2 106.3 60.2 106.6 60.2C108.2 60.3 109.6 59.1 109.7 57.4C109.7 57.3 109.7 57.2 109.7 57V40.5C110.2 41.1 110.7 41.6 111.2 42.1C111.4 42.3 111.6 42.5 111.8 42.7C114.5 45 118 46.2 121.5 46.1C123.1 46.1 124.7 45.9 126.3 45.4C127.4 45 128.5 44.5 129.5 43.9C131.8 42.5 133.6 40.5 134.9 38.2C135 38.1 135 38 135.1 37.8C135.2 37.6 135.3 37.5 135.3 37.3C136.5 34.8 137.1 32.1 137.1 29.3C137.2 29.2 137.2 29.1 137.2 29.1ZM114.8 19.1C115 19 115.3 18.9 115.5 18.7C116.6 18.1 117.9 17.8 119.1 17.6C119.5 17.6 119.9 17.5 120.3 17.5H120.4C120.9 17.5 121.4 17.5 121.9 17.6H122C122.2 17.6 122.3 17.7 122.5 17.7C122.6 17.7 122.7 17.7 122.8 17.8C122.9 17.8 123.1 17.9 123.2 17.9C123.3 17.9 123.4 17.9 123.4 18C123.6 18 123.7 18.1 123.9 18.2H124C124.2 18.3 124.4 18.3 124.6 18.4C124.7 18.4 124.7 18.5 124.8 18.5C124.9 18.6 125.1 18.6 125.2 18.7C125.3 18.7 125.3 18.8 125.4 18.8C125.6 18.9 125.8 19 126 19.1C127.7 20.1 129 21.5 129.9 23.2C130 23.4 130.1 23.6 130.2 23.8C130.3 23.9 130.3 24 130.3 24.1C130.3 24.2 130.4 24.3 130.4 24.3C130.5 24.5 130.5 24.6 130.6 24.8C130.9 25.8 131.1 26.8 131.2 27.8C131.2 28.2 131.3 28.6 131.3 28.9C131.3 30.7 130.9 32.5 130.1 34.2C130 34.4 129.9 34.6 129.8 34.8C129.7 35 129.6 35.2 129.5 35.4C128.8 36.6 127.8 37.6 126.7 38.4C126.5 38.6 126.2 38.7 126 38.9C121.3 41.7 115.2 40.6 111.9 36.2C111.2 35.2 110.6 34.1 110.2 33C109.8 31.7 109.6 30.4 109.6 29C109.6 27.9 109.7 26.8 110 25.7C110.2 24.8 110.6 23.9 111 23.1C111.8 21.5 113.1 20.1 114.8 19.1Z" fill="black"/>
<path d="M41.7002 30.7C41.7002 30 41.7002 29.4 41.6002 28.7C41.4002 26.8 40.9002 24.9 40.1002 23.1C40.0002 22.8 39.9002 22.5 39.7002 22.2C39.5002 21.8 39.3002 21.5 39.0002 21.1C38.5002 20.3 37.9002 19.5 37.3002 18.8C36.7002 18.2 36.0002 17.6 35.3002 17C34.9002 16.7 34.5002 16.4 34.1002 16.1C32.9002 15.4 31.7002 14.8 30.3002 14.5C28.9002 14.1 27.5002 13.9 26.1002 14C25.5002 14 24.9002 14 24.4002 14.1C21.0002 14.5 17.9002 15.9 15.5002 18.3C15.1002 18.7 14.7002 19.1 14.4002 19.5V3.1C14.4002 2.8 14.4002 2.6 14.3002 2.3C14.2002 1.7 13.9002 1.2 13.5002 0.8C13.2002 0.5 12.9002 0.3 12.5002 0.2C12.1002 0.1 11.7002 0 11.3002 0C10.5002 0 9.7002 0.3 9.1002 0.9C8.8002 1.2 8.6002 1.5 8.4002 1.9C8.2002 2.2 8.2002 2.7 8.2002 3.1V30.8C8.2002 32.5 8.5002 34.3 9.0002 35.9H15.3002C15.0002 35.3 14.8002 34.7 14.6002 34C14.5002 33.5 14.4002 33 14.3002 32.4C14.2002 31.8 14.2002 31.3 14.2002 30.7C14.2002 29.7 14.3002 28.6 14.5002 27.6C14.6002 27 14.8002 26.4 15.1002 25.9C15.2002 25.6 15.4002 25.2 15.6002 24.9C15.9002 24.4 16.2002 23.9 16.5002 23.5C18.5002 20.8 21.6002 19.3 24.9002 19.4C25.4002 19.4 25.9002 19.4 26.4002 19.5C26.8002 19.5 27.1002 19.6 27.5002 19.7C28.5002 19.9 29.5002 20.3 30.5002 20.9C31.3002 21.4 32.1002 22 32.7002 22.7C33.1002 23.1 33.4002 23.5 33.7002 24C33.9002 24.3 34.1002 24.7 34.3002 25C34.5002 25.4 34.7002 25.9 34.9002 26.3C35.4002 27.7 35.7002 29.2 35.7002 30.8C35.7002 31.2 35.7002 31.6 35.6002 32C35.6002 32.4 35.5002 32.7 35.5002 33.1C35.5002 33.2 35.5002 33.3 35.4002 33.4C35.3002 33.7 35.3002 34 35.2002 34.3C35.1002 34.5 35.1002 34.7 35.0002 34.9C34.9002 35.1 34.9002 35.3 34.8002 35.5C34.7002 35.8 34.6002 36.1 34.4002 36.3C34.3002 36.4 34.3002 36.5 34.2002 36.7C34.1002 36.9 33.9002 37.1 33.8002 37.3C33.3002 38.1 32.7002 38.8 32.0002 39.4C31.5002 39.9 30.9002 40.3 30.3002 40.7C30.3002 40.7 30.2002 40.7 30.2002 40.8C29.9002 41 29.5002 41.2 29.2002 41.3C29.1002 41.4 29.0002 41.4 28.8002 41.4C28.5002 41.5 28.2002 41.6 27.9002 41.7C27.8002 41.7 27.6002 41.8 27.5002 41.8C27.1002 41.9 26.7002 42 26.3002 42C25.8002 42.1 25.3002 42.1 24.8002 42.1C24.8002 42.1 24.8002 42.1 24.7002 42.1C24.3002 42.1 23.9002 42.1 23.5002 42C22.9002 41.9 22.3002 41.8 21.7002 41.7H21.6002C21.0002 41.5 20.4002 41.3 19.9002 41C19.7002 40.9 19.5002 40.8 19.3002 40.7C19.3002 40.7 19.2002 40.7 19.2002 40.6C19.1002 40.6 19.1002 40.6 19.1002 40.7H11.1002C12.4002 42.6 14.2002 44.2 16.2002 45.4C18.8002 46.9 21.7002 47.7 24.7002 47.6C25.3002 47.6 25.8002 47.5 26.4002 47.5H26.5002C26.6002 47.5 26.6002 47.5 26.7002 47.5C27.0002 47.5 27.3002 47.4 27.6002 47.4C28.0002 47.3 28.3002 47.3 28.7002 47.2C29.0002 47.1 29.3002 47.1 29.6002 47C29.7002 47 29.8002 46.9 30.0002 46.9C30.2002 46.8 30.5002 46.7 30.7002 46.6C31.0002 46.5 31.2002 46.4 31.5002 46.3C32.1002 46 32.7002 45.8 33.3002 45.4C33.9002 45 34.5002 44.6 35.1002 44.2C37.4002 42.5 39.1002 40.2 40.2002 37.5C40.4002 37.1 40.5002 36.7 40.6002 36.2C40.7002 36 40.7002 35.8 40.8002 35.6C41.0002 35 41.1002 34.5 41.2002 33.9V33.8C41.4002 32.8 41.5002 31.8 41.5002 30.8C41.5002 30.8 41.5002 30.8 41.5002 30.7C41.7002 30.7 41.7002 30.7 41.7002 30.7Z" fill="#FC8D2F"/>
<path d="M9.3998 37.291H5.7998V39.391H32.0998C32.7998 38.791 33.3998 38.091 33.8998 37.291H9.3998Z" fill="black"/>
<path d="M43.9002 45.691H40.2002V47.591H46.0002V42.491H43.9002V45.691Z" fill="black"/>
<path d="M42.7002 29.091C42.7002 29.691 42.8002 30.191 42.8002 30.791C42.8002 30.891 42.8002 30.891 42.8002 30.991H44.0002V34.191H46.1002V29.091H42.7002Z" fill="black"/>
<path d="M2.1 42.491H0V47.591H5.8V45.691H2.1V42.491Z" fill="black"/>
<path d="M2.1 30.991H5.8V29.091H0V34.191H2.1V30.991Z" fill="black"/>
</svg>
