<svg width="160" height="160" viewBox="0 0 160 160" fill="none" xmlns="http://www.w3.org/2000/svg">
<path d="M139.996 118.75H19.9961V126.25H139.996V118.75Z" fill="black"/>
<path d="M46.4234 92.5005H46.4062C46.4113 92.4776 46.4161 92.4547 46.4211 92.4318C46.4211 92.4547 46.4234 92.4776 46.4234 92.5005Z" fill="#FC8D2F"/>
<path d="M152.5 146.25H140V153.75H160V133.75H152.5V146.25Z" fill="black"/>
<path d="M7.49997 146.25H19.9999V153.75H0V133.75H7.49997V146.25Z" fill="black"/>
<path d="M7.49997 98.7501H19.9999V91.2501H0V111.25H7.49997V98.7501Z" fill="black"/>
<path d="M159.999 111.25H152.499V98.7501H144.75C144.721 96.1914 144.562 93.6916 144.267 91.2501H159.999V111.25Z" fill="black"/>
<path d="M35.6225 0C38.6767 0.000212633 41.1763 0.971527 43.12 2.91504C45.2027 4.85896 46.245 7.42914 46.245 10.6226V63.3521C51.105 57.3816 57.0073 52.7295 63.95 49.397C70.8928 46.0647 78.3916 44.3994 86.4451 44.3994C96.4427 44.3994 105.469 46.898 113.523 51.897C121.715 56.896 128.103 63.8401 132.685 72.7271C137.406 81.475 139.768 91.264 139.768 102.095C139.768 112.926 137.267 122.785 132.268 131.672C127.269 140.421 120.327 147.365 111.44 152.502C102.692 157.501 92.9698 160 82.2776 160C71.5859 160 61.8653 157.501 53.1176 152.502C45.2037 147.78 38.7665 141.524 33.7866 133.75H59.829C60.9374 134.645 62.0968 135.487 63.325 136.255C69.0178 139.587 75.3354 141.255 82.2776 141.255C89.2205 141.255 95.4706 139.587 101.025 136.255C106.718 132.783 111.161 128.061 114.355 122.09C117.687 116.119 119.355 109.454 119.355 102.095C119.355 94.7352 117.688 88.1391 114.355 82.3071C111.161 76.3364 106.718 71.6848 101.025 68.3521C95.4706 64.8806 89.2205 63.1445 82.2776 63.1445C75.3354 63.1448 69.0178 64.8811 63.325 68.3521C57.7709 71.6845 53.3963 76.3364 50.2025 82.3071C47.0088 88.1391 45.4101 94.7352 45.4101 102.095C45.4101 105.277 45.7152 108.328 46.3134 111.25H25.6323C25.2128 108.28 25 105.228 25 102.095V10.6226C25 7.42913 25.9713 4.85896 27.915 2.91504C29.859 0.971403 32.429 0 35.6225 0Z" fill="#FC8D2F"/>
</svg>
